<svg id="object" xmlns="http://www.w3.org/2000/svg" viewBox="0 0 1200 800"><defs><style>.cls-1{fill:#bc2828;}.cls-2{fill:#635b5b;}</style></defs><title>13Artboard 81</title><path class="cls-1" d="M546.82,596.48a3.29,3.29,0,0,1-2.33-1L351,402.33a3.28,3.28,0,0,1,0-4.66L544.49,204.49a3.28,3.28,0,0,1,4.65,0L742.66,397.67a3.28,3.28,0,0,1,0,4.66L549.14,595.51A3.28,3.28,0,0,1,546.82,596.48ZM358,400,546.82,588.53,735.68,400,546.82,211.47Z"/><path class="cls-2" d="M696.76,553a3.28,3.28,0,0,1-2.33-1l-50.32-50.23a3.29,3.29,0,1,1,4.65-4.66l48,47.91L842,400,696.76,255,549.14,402.33a3.29,3.29,0,0,1-4.65-4.66L694.43,248a3.29,3.29,0,0,1,4.66,0L849,397.67a3.28,3.28,0,0,1,0,4.66L699.09,552A3.28,3.28,0,0,1,696.76,553Z"/><path class="cls-2" d="M696.76,553a3.28,3.28,0,0,1-2.33-1l-50.32-50.23a3.29,3.29,0,1,1,4.65-4.66l48,47.91L842,400,696.76,255,549.14,402.33a3.29,3.29,0,0,1-4.65-4.66L694.43,248a3.29,3.29,0,0,1,4.66,0L849,397.67a3.28,3.28,0,0,1,0,4.66L699.09,552A3.28,3.28,0,0,1,696.76,553Z"/><path class="cls-2" d="M523.48,436.62a13.32,13.32,0,1,1,13.34-13.32A13.34,13.34,0,0,1,523.48,436.62Zm0-20.06a6.74,6.74,0,1,0,6.75,6.74A6.76,6.76,0,0,0,523.48,416.56Z"/><path class="cls-2" d="M523.48,436.62a13.32,13.32,0,1,1,13.34-13.32A13.34,13.34,0,0,1,523.48,436.62Zm0-20.06a6.74,6.74,0,1,0,6.75,6.74A6.76,6.76,0,0,0,523.48,416.56Z"/></svg>