<svg id="object" xmlns="http://www.w3.org/2000/svg" viewBox="0 0 1200 800"><defs><style>.cls-1{fill:#bc2828;}.cls-2{fill:#635b5b;}</style></defs><title>23Artboard 81</title><path class="cls-1" d="M532.35,636.57c-100.55,0-182.35-82-182.35-182.76s81.8-182.75,182.35-182.75S714.7,353,714.7,453.81,632.9,636.57,532.35,636.57Zm0-356.66c-95.67,0-173.5,78-173.5,173.9s77.83,173.91,173.5,173.91,173.51-78,173.51-173.91S628,279.91,532.35,279.91Z"/><path class="cls-2" d="M699.86,526a4.42,4.42,0,0,1-.79-8.77c82.33-15.09,142.08-87,142.08-171.06,0-95.9-77.83-173.91-173.5-173.91s-173.5,78-173.5,173.91a174.19,174.19,0,0,0,41.56,112.94,4.42,4.42,0,0,1-6.73,5.74A183,183,0,0,1,485.3,346.19c0-100.77,81.8-182.76,182.35-182.76S850,245.42,850,346.19c0,88.3-62.8,163.9-149.33,179.76A4.43,4.43,0,0,1,699.86,526Z"/><path class="cls-2" d="M560.51,504.12a18.47,18.47,0,1,1,18.43-18.46A18.47,18.47,0,0,1,560.51,504.12Zm0-28.08a9.62,9.62,0,1,0,9.59,9.62A9.61,9.61,0,0,0,560.51,476Z"/><path class="cls-2" d="M560.51,504.12a18.47,18.47,0,1,1,18.43-18.46A18.47,18.47,0,0,1,560.51,504.12Zm0-28.08a9.62,9.62,0,1,0,9.59,9.62A9.61,9.61,0,0,0,560.51,476Z"/></svg>