<svg id="Layer_1" data-name="Layer 1" xmlns="http://www.w3.org/2000/svg" viewBox="0 0 195.22 32.29">
  <defs>
    <style>
      .cls-1 {
        fill: #635b5b;
      }

      .cls-2 {
        fill: #bc2828;
      }
    </style>
  </defs>
  <title>logo</title>
  <g>
    <path class="cls-1" d="M2.67,35.11l3.48-.49h.68l3.23.49v1.35H2.67Zm0-20.74H7.06v1.84h-.4l-4-.5Zm3,0H7.06l.3,9.92V36.46H5.65Zm0,0H8.78l8,19.59H15.62l7.54-19.59h1.78L16.38,36.46H14.71Zm15,20.74,4-.49h.71l4.32.49v1.35h-9Zm2.85-8.84V14.37h3.15c-.1,3.33-.1,6.77-.1,10.23v1.63c0,3.4,0,6.83.1,10.23H23.43C23.53,33.12,23.53,29.69,23.53,26.27ZM25,14.37h4.66v1.34l-4.32.5H25Z" transform="translate(-2.67 -12.06)"/>
    <path class="cls-1" d="M45.69,26.7a6.43,6.43,0,0,1-.23,1.85H33.24V27.14H41c1.59,0,2-.75,2-1.7a3.6,3.6,0,0,0-3.58-3.58c-2.07,0-4.44,1.77-4.44,6.49,0,4.18,2.1,6.4,5.36,6.4a5.7,5.7,0,0,0,4.58-2.31l.78.62a6.73,6.73,0,0,1-6.34,3.83c-4.44,0-7.34-3.07-7.34-8.11s3.47-8.42,7.58-8.42A5.92,5.92,0,0,1,45.69,26.7Z" transform="translate(-2.67 -12.06)"/>
    <path class="cls-1" d="M55,35.18a3.69,3.69,0,0,0,2.21-.91l.77.88a4.73,4.73,0,0,1-3.89,1.74c-2.32,0-3.76-1.2-3.76-3.78,0-.81,0-1.51,0-2.8V22.54H47.6V21.09l4.08-.52-1.35,1.1,1.05-5.37h2l-.25,5.78V32.75C53.13,34.46,53.85,35.18,55,35.18Zm2.65-14.39v1.75H51.73V20.79Z" transform="translate(-2.67 -12.06)"/>
    <path class="cls-1" d="M65,27.78a37.47,37.47,0,0,1,5.13-1.39v1.2a29.58,29.58,0,0,0-4.42,1.32c-2.88,1.13-3.25,2.37-3.25,3.36,0,1.75,1.14,2.44,2.63,2.44,1.13,0,1.78-.42,3.8-1.86l.7-.52L70,33l-1,1c-2,2-3.07,2.89-5.11,2.89-2.42,0-4.41-1.39-4.41-4.13C59.52,30.88,60.52,29.39,65,27.78Zm3.73,5.66V25.87c0-3.21-.91-4-3.08-4a7.83,7.83,0,0,0-3,.59l1.37-1-.82,2.81c-.28,1-.81,1.57-1.72,1.57A1.39,1.39,0,0,1,60,24.45c.6-2.52,3.06-4.09,6.44-4.09s5.1,1.57,5.1,5.74v7c0,1.44.45,2,1.19,2A1.61,1.61,0,0,0,74,34.35l.67.72a3.11,3.11,0,0,1-2.87,1.72C69.91,36.79,68.72,35.48,68.71,33.44Z" transform="translate(-2.67 -12.06)"/>
    <path class="cls-2" d="M80.81,12.06l.46.27L81.14,17V29.53q0,3.46.1,6.93h-3q.1-3.47.1-6.93V15l-2.7-.33V13.54Zm3,23.22v1.18H75.66V35.28l3.7-.66h.76Z" transform="translate(-2.67 -12.06)"/>
    <path class="cls-2" d="M99.86,26.7a6.86,6.86,0,0,1-.22,1.85H87.42V27.14h7.76c1.58,0,1.95-.75,1.95-1.7a3.6,3.6,0,0,0-3.59-3.58c-2.07,0-4.44,1.77-4.44,6.49,0,4.18,2.1,6.4,5.36,6.4A5.69,5.69,0,0,0,99,32.44l.78.62a6.72,6.72,0,0,1-6.34,3.83c-4.44,0-7.34-3.07-7.34-8.11s3.48-8.42,7.58-8.42A5.92,5.92,0,0,1,99.86,26.7Z" transform="translate(-2.67 -12.06)"/>
    <path class="cls-2" d="M108.1,27.78a37.72,37.72,0,0,1,5.12-1.39v1.2a29.78,29.78,0,0,0-4.41,1.32c-2.89,1.13-3.25,2.37-3.25,3.36,0,1.75,1.13,2.44,2.63,2.44,1.12,0,1.78-.42,3.8-1.86l.7-.52.45.68-1,1c-2,2-3.08,2.89-5.11,2.89-2.42,0-4.42-1.39-4.42-4.13C102.63,30.88,103.64,29.39,108.1,27.78Zm3.72,5.66V25.87c0-3.21-.9-4-3.07-4a7.79,7.79,0,0,0-3,.59l1.37-1-.82,2.81c-.29,1-.81,1.57-1.73,1.57a1.38,1.38,0,0,1-1.52-1.34c.6-2.52,3.05-4.09,6.44-4.09s5.09,1.57,5.09,5.74v7c0,1.44.46,2,1.2,2a1.61,1.61,0,0,0,1.27-.72l.67.72a3.11,3.11,0,0,1-2.87,1.72C113,36.79,111.84,35.48,111.82,33.44Z" transform="translate(-2.67 -12.06)"/>
    <path class="cls-2" d="M121.61,29.53V28c0-1.81,0-2.81-.1-4.14l-2.6-.29V22.35l4.6-2,.5.33.39,4.12v4.72c0,2,0,5.44.1,6.93h-3C121.58,35,121.61,31.57,121.61,29.53Zm-2.44,5.75,3.61-.66h.82l3.6.66v1.18h-8ZM123,25.08h1.91l-.8.26c1-3.12,3.06-5,5-5a2.75,2.75,0,0,1,2.37,1.2c0,1.56-.62,2.42-1.94,2.42a3,3,0,0,1-2-.83l-.89-.79,1.6-.28a7.85,7.85,0,0,0-3.93,5.21H123Z" transform="translate(-2.67 -12.06)"/>
    <path class="cls-2" d="M135.46,36.46c.07-1.49.1-4.89.1-6.93V28c0-1.82,0-2.82-.1-4.15l-2.61-.29V22.35l4.61-2,.5.33.39,3.82v5c0,2,0,5.44.1,6.93Zm5.25-1.18v1.18h-7.65V35.28l3.6-.66h.76Zm7.67-8.84v3.09c0,2.11,0,5.44.1,6.93h-3c.06-1.49.1-4.82.1-6.93V26.71c0-3-.78-4-2.72-4-1.63,0-3,.68-4.84,2.29h-.72V23.49H139l-1.41.61a8.84,8.84,0,0,1,6.53-3.74C147,20.36,148.38,22.12,148.38,26.44Zm-.93,8.18,3.3.66v1.18h-7.66V35.28l3.59-.66Z" transform="translate(-2.67 -12.06)"/>
    <path class="cls-2" d="M155.32,36.46c.07-1.49.1-4.89.1-6.93V28c0-1.81,0-2.83-.1-4.16l-2.66-.29V22.35l5.09-2,.5.33-.1,4.48v4.36c0,2,0,5.44.1,6.93Zm5.2-1.18v1.18h-7.66V35.28l3.6-.66h.76Zm-6-20.68a2.21,2.21,0,0,1,4.42,0,2.21,2.21,0,0,1-4.42,0Z" transform="translate(-2.67 -12.06)"/>
    <path class="cls-2" d="M165.28,36.46c.07-1.49.1-4.89.1-6.93V28c0-1.82,0-2.82-.1-4.15l-2.6-.29V22.35l4.6-2,.5.33.39,3.82v5c0,2,0,5.44.1,6.93Zm5.25-1.18v1.18h-7.65V35.28l3.6-.66h.76Zm7.67-8.84v3.09c0,2.11,0,5.44.1,6.93h-3c.07-1.49.1-4.82.1-6.93V26.71c0-3-.78-4-2.72-4-1.62,0-3,.68-4.84,2.29h-.72V23.49h1.72l-1.41.61A8.84,8.84,0,0,1,174,20.36C176.81,20.36,178.2,22.12,178.2,26.44Zm-.93,8.18,3.3.66v1.18h-7.66V35.28l3.6-.66Z" transform="translate(-2.67 -12.06)"/>
    <path class="cls-2" d="M195.23,39.49c0-1.45-.91-2.56-3.28-2.56h-3.87a10.78,10.78,0,0,1-1.76-.13v-.1c-1.68-.37-2.53-1.24-2.53-2.62,0-1.19.78-2.46,3-4.39l.73.5a3.85,3.85,0,0,0-1.38,2.73c0,.88.37,1.47,1.92,1.47h4.32c3.62,0,5.31,1.57,5.31,4.26,0,2.87-2.74,5.7-8.15,5.7-4.79,0-6.84-1.66-6.84-4,0-1.62,1-2.85,4.32-4.23l.18.2c-1.29,1.27-1.8,2.23-1.8,3.51,0,2.16,1.67,3,4.27,3C193.3,42.84,195.23,41.35,195.23,39.49Zm-5.76-19.13c3.44,0,5.93,1.81,5.93,5.41s-2.55,5.41-6,5.41-6-1.81-6-5.41S186,20.36,189.47,20.36Zm-3.3,5.44c0,2.41,1.16,4,3.17,4s3.37-1.73,3.37-4.17-1.17-4-3.21-4S186.17,23.39,186.17,25.8Zm11.22-5.44.49.33v2.07H193v-.9Z" transform="translate(-2.67 -12.06)"/>
  </g>
</svg>
