<svg id="Layer_1" data-name="Layer 1" xmlns="http://www.w3.org/2000/svg" viewBox="0 0 250 250"><defs><style>.cls-1{fill:#645b5c;}</style></defs><title>Artboard 2</title><polygon class="cls-1" points="206.82 76.52 143.79 82.1 142.63 181.47 206.82 164.3 206.82 76.52"/><polygon class="cls-1" points="44.01 164.3 107.01 181.16 107.01 82.1 44.01 76.52 44.01 164.3"/><polygon class="cls-1" points="136.96 182.34 136.96 82.34 112.65 82.34 113.82 182.34 136.96 182.34"/><path class="cls-1" d="M124.5,242.71A117.51,117.51,0,1,0,7,125.21,117.5,117.5,0,0,0,124.5,242.71ZM38.4,166.45v-93a2.81,2.81,0,0,1,.92-2.07,2.76,2.76,0,0,1,2.14-.72l68.48,6.06h9.41c-3.55-3.27-12.61-5.73-19.27-6.54H45a2.81,2.81,0,1,1,0-5.61h55.3a1.83,1.83,0,0,1,.33,0c3.75.45,20.46,2.89,24.83,10.87,4.38-8,21.09-10.42,24.84-10.87a1.83,1.83,0,0,1,.33,0h55.31a2.81,2.81,0,0,1,0,5.61H150.75c-6.66.82-15.71,3.27-19.26,6.54h8.27a3,3,0,0,1,.61.12c.14,0,.26-.09.4-.11l68.61-6.07a2.76,2.76,0,0,1,2.14.72,2.8,2.8,0,0,1,.91,2.07v93a2.8,2.8,0,0,1-2.08,2.71l-69.84,18.69a3,3,0,0,1-.72.09h-30a2.78,2.78,0,0,1-1.84-.72l-67.5-18.06A2.81,2.81,0,0,1,38.4,166.45Z"/></svg>