<svg id="Layer_1" data-name="Layer 1" xmlns="http://www.w3.org/2000/svg" viewBox="0 0 250 250"><defs><style>.cls-1,.cls-2{fill:#645b5c;}.cls-1{fill-rule:evenodd;}</style></defs><title>Artboard 2</title><path class="cls-1" d="M125,7.5C60.12,7.5,7.5,61.44,7.5,128c0,53.23,33.67,98.39,80.35,114.32,5.88,1.12,8-2.61,8-5.79,0-2.88-.11-12.37-.16-22.43C63,221.35,56.14,199.85,56.14,199.85c-5.35-13.92-13-17.63-13-17.63-10.66-7.47.8-7.32.8-7.32,11.8.85,18,12.42,18,12.42,10.47,18.41,27.48,13.09,34.19,10,1.05-7.78,4.1-13.1,7.46-16.11-26.1-3-53.54-13.38-53.54-59.54A47.29,47.29,0,0,1,62.13,89.34c-1.22-3-5.24-15.28,1.14-31.88,0,0,9.87-3.23,32.32,12.35a108.92,108.92,0,0,1,58.85,0c22.42-15.58,32.28-12.35,32.28-12.35,6.39,16.6,2.37,28.85,1.15,31.88A47.23,47.23,0,0,1,200,121.68c0,46.27-27.49,56.46-53.65,59.45,4.21,3.73,8,11.07,8,22.3,0,16.12-.14,29.1-.14,33.07,0,3.2,2.12,7,8.07,5.78C208.87,226.33,242.5,181.19,242.5,128,242.5,61.44,189.89,7.5,125,7.5Z"/><path class="cls-2" d="M52,180.47c-.25.6-1.17.78-2,.37s-1.33-1.21-1.06-1.81,1.18-.78,2-.37,1.34,1.21,1,1.81Zm-1.44-1.09"/><path class="cls-2" d="M56.76,185.92c-.56.53-1.65.28-2.4-.56a1.86,1.86,0,0,1-.34-2.5c.58-.53,1.64-.29,2.41.55s.92,2,.33,2.51Zm-1.12-1.24"/><path class="cls-2" d="M61.4,192.86c-.72.51-1.9,0-2.63-1s-.72-2.36,0-2.87,1.89-.06,2.62,1,.72,2.37,0,2.9Zm0,0"/><path class="cls-2" d="M67.74,199.56c-.64.73-2,.53-3-.46s-1.31-2.35-.67-3.08,2-.52,3,.46,1.33,2.36.64,3.08Zm0,0"/><path class="cls-2" d="M76.5,203.45c-.29,1-1.61,1.37-2.94,1s-2.2-1.52-1.93-2.47,1.61-1.39,3-1,2.19,1.51,1.92,2.47Zm0,0"/><path class="cls-2" d="M86.12,204.17c0,1-1.1,1.82-2.5,1.84s-2.54-.77-2.56-1.75,1.11-1.82,2.51-1.84,2.55.77,2.55,1.75Zm0,0"/><path class="cls-2" d="M95.06,202.61c.17,1-.8,2-2.19,2.23s-2.62-.34-2.8-1.3.82-2,2.18-2.25,2.64.34,2.81,1.32Zm0,0"/></svg>