<svg id="Layer_1" data-name="Layer 1" xmlns="http://www.w3.org/2000/svg" viewBox="0 0 250 250"><defs><style>.cls-1{fill:#645b5c;}</style></defs><title>Artboard 2</title><path class="cls-1" d="M151.1,160.54q2.1,2.1,0,4.06-8.13,8.13-26.1,8.13T98.9,164.6q-2.1-2,0-4.06a2.85,2.85,0,0,1,3.94,0Q109.13,167,125,167t22.16-6.42a2.85,2.85,0,0,1,3.94,0ZM110.84,136.8a11.64,11.64,0,0,1-11.67,11.67,11.45,11.45,0,0,1-8.33-3.41,11.12,11.12,0,0,1-3.48-8.26,11.28,11.28,0,0,1,3.48-8.39A11.48,11.48,0,0,1,99.17,125a11.15,11.15,0,0,1,8.26,3.48A11.46,11.46,0,0,1,110.84,136.8Zm51.8,0a11.12,11.12,0,0,1-3.48,8.26,11.45,11.45,0,0,1-8.33,3.41,11.64,11.64,0,0,1-11.67-11.67,11.46,11.46,0,0,1,3.41-8.32,11.15,11.15,0,0,1,8.26-3.48,11.48,11.48,0,0,1,8.33,3.41A11.28,11.28,0,0,1,162.64,136.8Zm32.91-15.73a15.67,15.67,0,0,0-15.73-15.61,15.38,15.38,0,0,0-11.28,4.72q-17.06-11.81-40.79-12.59L136,60.48l26.22,5.9a11.64,11.64,0,0,0,11.67,11.67,11.77,11.77,0,0,0,8.33-20.13,11.37,11.37,0,0,0-8.33-3.47q-7.08,0-10.49,6.55l-29-6.42q-2.49-.66-3.28,2.1l-9,40.91q-23.6.91-40.52,12.72A15.83,15.83,0,0,0,59,110.05a15,15,0,0,0-4.59,11,15.35,15.35,0,0,0,2.42,8.39,15.67,15.67,0,0,0,6.49,5.77,34,34,0,0,0-.78,7.34q0,18.63,18.36,31.87t44.19,13.24q26,0,44.33-13.24t18.36-31.87a27.77,27.77,0,0,0-.92-7.47,15.53,15.53,0,0,0,6.29-5.71A15.19,15.19,0,0,0,195.55,121.07ZM242.5,125a114.86,114.86,0,0,1-9.31,45.64,115.51,115.51,0,0,1-62.55,62.55,116.52,116.52,0,0,1-91.28,0,115.51,115.51,0,0,1-62.55-62.55,116.52,116.52,0,0,1,0-91.28A115.51,115.51,0,0,1,79.36,16.81a116.52,116.52,0,0,1,91.28,0,115.51,115.51,0,0,1,62.55,62.55A114.86,114.86,0,0,1,242.5,125Z"/></svg>