<svg id="object" xmlns="http://www.w3.org/2000/svg" viewBox="0 0 1200 800"><defs><style>.cls-1{fill:#635b5b;}.cls-2{fill:#bc2828;}</style></defs><title>03Artboard 81</title><path class="cls-1" d="M355.07,638.69a5.07,5.07,0,0,1-5.07-5.07V157.23a5.07,5.07,0,0,1,8.36-3.87L600,358.84,841.64,153.36a5.07,5.07,0,1,1,6.57,7.73L603.29,369.36a5.09,5.09,0,0,1-6.58,0L360.15,168.2V633.62A5.08,5.08,0,0,1,355.07,638.69Z"/><path class="cls-1" d="M844.93,637.47a5.08,5.08,0,0,1-5.08-5.07V263.57L603.29,464.73a5.09,5.09,0,0,1-6.58,0L403.14,300.12a5.07,5.07,0,1,1,6.57-7.73L600,454.21,841.64,248.73a5.07,5.07,0,0,1,8.36,3.86V632.4A5.07,5.07,0,0,1,844.93,637.47Z"/><path class="cls-1" d="M355.07,638.69a5.07,5.07,0,0,1-5.07-5.07V157.23a5.07,5.07,0,0,1,8.36-3.87L600,358.84,841.64,153.36a5.07,5.07,0,1,1,6.57,7.73L603.29,369.36a5.09,5.09,0,0,1-6.58,0L360.15,168.2V633.62A5.08,5.08,0,0,1,355.07,638.69Z"/><path class="cls-1" d="M844.93,637.47a5.08,5.08,0,0,1-5.08-5.07V263.57L603.29,464.73a5.09,5.09,0,0,1-6.58,0L403.14,300.12a5.07,5.07,0,1,1,6.57-7.73L600,454.21,841.64,248.73a5.07,5.07,0,0,1,8.36,3.86V632.4A5.07,5.07,0,0,1,844.93,637.47Z"/><path class="cls-1" d="M355.07,638.69a5.07,5.07,0,0,1-5.07-5.07V157.23a5.07,5.07,0,0,1,8.36-3.87L600,358.84,841.64,153.36a5.07,5.07,0,1,1,6.57,7.73L603.29,369.36a5.09,5.09,0,0,1-6.58,0L360.15,168.2V633.62A5.08,5.08,0,0,1,355.07,638.69Z"/><path class="cls-1" d="M844.93,637.47a5.08,5.08,0,0,1-5.08-5.07V263.57L603.29,464.73a5.09,5.09,0,0,1-6.58,0L403.14,300.12a5.07,5.07,0,1,1,6.57-7.73L600,454.21,841.64,248.73a5.07,5.07,0,0,1,8.36,3.86V632.4A5.07,5.07,0,0,1,844.93,637.47Z"/><path class="cls-1" d="M844.93,637.47H600a5.08,5.08,0,0,1,0-10.15H844.93a5.08,5.08,0,0,1,0,10.15Z"/><path class="cls-1" d="M844.93,637.47H600a5.08,5.08,0,0,1,0-10.15H844.93a5.08,5.08,0,0,1,0,10.15Z"/><path class="cls-1" d="M844.93,637.47H600a5.08,5.08,0,0,1,0-10.15H844.93a5.08,5.08,0,0,1,0,10.15Z"/><path class="cls-1" d="M537.59,647.85a20.52,20.52,0,1,1,20.54-20.52A20.56,20.56,0,0,1,537.59,647.85Zm0-30.9A10.38,10.38,0,1,0,548,627.33,10.4,10.4,0,0,0,537.59,617Z"/><path class="cls-1" d="M537.59,647.85a20.52,20.52,0,1,1,20.54-20.52A20.56,20.56,0,0,1,537.59,647.85Zm0-30.9A10.38,10.38,0,1,0,548,627.33,10.4,10.4,0,0,0,537.59,617Z"/><path class="cls-1" d="M537.59,647.85a20.52,20.52,0,1,1,20.54-20.52A20.56,20.56,0,0,1,537.59,647.85Zm0-30.9A10.38,10.38,0,1,0,548,627.33,10.4,10.4,0,0,0,537.59,617Z"/><path class="cls-1" d="M355.07,638.69a5.07,5.07,0,0,1-5.07-5.07V157.23a5.07,5.07,0,0,1,8.36-3.87L600,358.84,841.64,153.36a5.07,5.07,0,1,1,6.57,7.73L603.29,369.36a5.09,5.09,0,0,1-6.58,0L360.15,168.2V633.62A5.08,5.08,0,0,1,355.07,638.69Z"/><path class="cls-1" d="M844.93,637.47a5.08,5.08,0,0,1-5.08-5.07V263.57L603.29,464.73a5.09,5.09,0,0,1-6.58,0L403.14,300.12a5.07,5.07,0,1,1,6.57-7.73L600,454.21,841.64,248.73a5.07,5.07,0,0,1,8.36,3.86V632.4A5.07,5.07,0,0,1,844.93,637.47Z"/><path class="cls-2" d="M355.07,638.69a5.07,5.07,0,0,1-5.07-5.07V157.23a5.07,5.07,0,0,1,8.36-3.87L600,358.84,841.64,153.36a5.07,5.07,0,1,1,6.57,7.73L603.29,369.36a5.09,5.09,0,0,1-6.58,0L360.15,168.2V633.62A5.08,5.08,0,0,1,355.07,638.69Z"/><path class="cls-1" d="M844.93,637.47a5.08,5.08,0,0,1-5.08-5.07V263.57L603.29,464.73a5.09,5.09,0,0,1-6.58,0L403.14,300.12a5.07,5.07,0,1,1,6.57-7.73L600,454.21,841.64,248.73a5.07,5.07,0,0,1,8.36,3.86V632.4A5.07,5.07,0,0,1,844.93,637.47Z"/><path class="cls-1" d="M844.93,637.47H600a5.08,5.08,0,0,1,0-10.15H844.93a5.08,5.08,0,0,1,0,10.15Z"/><path class="cls-1" d="M844.93,637.47H600a5.08,5.08,0,0,1,0-10.15H844.93a5.08,5.08,0,0,1,0,10.15Z"/><path class="cls-1" d="M537.59,647.85a20.52,20.52,0,1,1,20.54-20.52A20.56,20.56,0,0,1,537.59,647.85Zm0-30.9A10.38,10.38,0,1,0,548,627.33,10.4,10.4,0,0,0,537.59,617Z"/><path class="cls-1" d="M537.59,647.85a20.52,20.52,0,1,1,20.54-20.52A20.56,20.56,0,0,1,537.59,647.85Zm0-30.9A10.38,10.38,0,1,0,548,627.33,10.4,10.4,0,0,0,537.59,617Z"/></svg>