<svg id="object" xmlns="http://www.w3.org/2000/svg" viewBox="0 0 1200 800"><defs><style>.cls-1{fill:#bc2828;}.cls-2{fill:#635b5b;}</style></defs><title>Artboard 81</title><path class="cls-1" d="M737.62,653H354.86a4.86,4.86,0,0,1-4.86-4.86V266a4.87,4.87,0,0,1,4.86-4.86H737.62a4.86,4.86,0,0,1,4.86,4.86V648.13A4.85,4.85,0,0,1,737.62,653Zm-377.9-9.71h373V270.9h-373Z"/><path class="cls-2" d="M845.14,538.82H462.38a4.86,4.86,0,0,1-4.86-4.86V402.69a4.85,4.85,0,0,1,4.86-4.86h97.53a4.86,4.86,0,0,1,0,9.72H467.24V529.1h373V156.72h-373V266a4.86,4.86,0,0,1-9.72,0V151.87a4.85,4.85,0,0,1,4.86-4.86H845.14a4.86,4.86,0,0,1,4.86,4.86V534A4.87,4.87,0,0,1,845.14,538.82Z"/><path class="cls-2" d="M845.14,538.82H462.38a4.86,4.86,0,0,1-4.86-4.86V402.69a4.85,4.85,0,0,1,4.86-4.86h97.53a4.86,4.86,0,0,1,0,9.72H467.24V529.1h373V156.72h-373V266a4.86,4.86,0,0,1-9.72,0V151.87a4.85,4.85,0,0,1,4.86-4.86H845.14a4.86,4.86,0,0,1,4.86,4.86V534A4.87,4.87,0,0,1,845.14,538.82Z"/><path class="cls-2" d="M606.06,422.34a19.66,19.66,0,1,1,19.68-19.65A19.69,19.69,0,0,1,606.06,422.34Zm0-29.59a9.94,9.94,0,1,0,10,9.94A10,10,0,0,0,606.06,392.75Z"/><path class="cls-2" d="M606.06,422.34a19.66,19.66,0,1,1,19.68-19.65A19.69,19.69,0,0,1,606.06,422.34Zm0-29.59a9.94,9.94,0,1,0,10,9.94A10,10,0,0,0,606.06,392.75Z"/></svg>